<svg width="641" height="548" viewBox="0 0 641 548" fill="none" xmlns="http://www.w3.org/2000/svg">
<ellipse cx="227" cy="224.5" rx="227" ry="224.5" fill="#6C63FF"/>
<g clip-path="url(#clip0)">
<path d="M505.787 335.513V465.254L527.17 500.621L528.797 503.311H613.167L614.872 335.513H505.787Z" fill="#E6E6E6"/>
<path opacity="0.1" d="M505.787 335.513V465.254L527.17 500.621L528.482 335.513H505.787Z" fill="black"/>
<path d="M302.105 332.053V461.794L280.722 497.161L279.095 499.851H194.724L193.019 332.053H302.105Z" fill="#E6E6E6"/>
<path opacity="0.1" d="M302.105 332.053V461.794L280.722 497.161L279.41 332.053H302.105Z" fill="black"/>
<path d="M640.439 329.459V337.243H181.941V325.999L224.552 303.51H602.941L640.439 329.459Z" fill="#E6E6E6"/>
<path opacity="0.1" d="M640.439 329.459V337.243H181.941V325.999L640.439 329.459Z" fill="black"/>
<path d="M247.562 368.381H227.108L218.586 362.326H256.937L247.562 368.381Z" fill="#3F3D56"/>
<path d="M247.562 393.464H227.108L218.586 387.409H256.937L247.562 393.464Z" fill="#3F3D56"/>
<path d="M247.562 428.927H227.108L218.586 422.872H256.937L247.562 428.927Z" fill="#3F3D56"/>
<path d="M247.562 464.389H227.108L218.586 458.334H256.937L247.562 464.389Z" fill="#3F3D56"/>
<path d="M560.329 371.84H580.783L589.305 365.786H550.955L560.329 371.84Z" fill="#3F3D56"/>
<path d="M560.329 396.924H580.783L589.305 390.869H550.955L560.329 396.924Z" fill="#3F3D56"/>
<path d="M560.329 432.386H580.783L589.305 426.332H550.955L560.329 432.386Z" fill="#3F3D56"/>
<path d="M560.329 467.848H580.783L589.305 461.794H550.955L560.329 467.848Z" fill="#3F3D56"/>
<path d="M574.258 153.478H402.068C401.213 153.478 400.366 153.649 399.576 153.981C398.786 154.313 398.068 154.8 397.463 155.414C396.858 156.027 396.379 156.756 396.051 157.558C395.724 158.36 395.556 159.219 395.556 160.087V277.809C395.556 278.677 395.724 279.536 396.051 280.338C396.379 281.14 396.858 281.869 397.463 282.482C398.068 283.096 398.786 283.583 399.576 283.915C400.366 284.247 401.213 284.418 402.068 284.418H467.433L464.984 300.286C464.984 300.286 450.989 307.832 460.829 308.054C470.669 308.276 517.027 308.054 517.027 308.054C517.027 308.054 525.993 308.054 511.779 300.064L509.476 284.418H574.258C575.113 284.418 575.96 284.247 576.75 283.915C577.54 283.583 578.258 283.096 578.863 282.483C579.467 281.869 579.947 281.14 580.274 280.338C580.602 279.536 580.77 278.677 580.77 277.809V160.087C580.77 159.219 580.602 158.36 580.274 157.558C579.947 156.756 579.467 156.027 578.863 155.414C578.258 154.8 577.54 154.313 576.75 153.981C575.96 153.649 575.113 153.478 574.258 153.478V153.478Z" fill="#3F3D56"/>
<path d="M574.538 160.469H401.788V258.563H574.538V160.469Z" fill="#F2F2F2"/>
<path d="M488.163 158.472C488.767 158.472 489.256 157.975 489.256 157.362C489.256 156.749 488.767 156.252 488.163 156.252C487.559 156.252 487.07 156.749 487.07 157.362C487.07 157.975 487.559 158.472 488.163 158.472Z" fill="#F2F2F2"/>
<path d="M488.163 279.647C490.458 279.647 492.318 277.759 492.318 275.43C492.318 273.101 490.458 271.213 488.163 271.213C485.868 271.213 484.008 273.101 484.008 275.43C484.008 277.759 485.868 279.647 488.163 279.647Z" fill="#F2F2F2"/>
<path d="M481.689 320.038V322.258H364.044V320.482L364.206 320.038L367.105 312.049H479.283L481.689 320.038Z" fill="#3F3D56"/>
<path d="M526.962 317.865C526.748 318.795 525.939 319.776 524.111 320.704C517.551 324.033 504.212 319.816 504.212 319.816C504.212 319.816 493.934 318.041 493.934 313.38C494.223 313.18 494.524 312.998 494.835 312.836C497.593 311.355 506.738 307.701 522.953 312.991C524.147 313.372 525.214 314.081 526.035 315.041C526.398 315.404 526.672 315.849 526.833 316.34C526.994 316.831 527.039 317.354 526.962 317.865Z" fill="#3F3D56"/>
<path opacity="0.1" d="M526.962 317.865C518.933 320.988 511.775 321.221 504.43 316.043C501.653 313.959 498.289 312.835 494.835 312.836C497.593 311.355 506.738 307.701 522.953 312.991C524.147 313.372 525.214 314.081 526.035 315.041C526.398 315.404 526.672 315.849 526.833 316.34C526.994 316.831 527.039 317.354 526.962 317.865Z" fill="black"/>
<path d="M516.894 316.043C518.464 316.043 519.737 315.646 519.737 315.156C519.737 314.665 518.464 314.268 516.894 314.268C515.324 314.268 514.052 314.665 514.052 315.156C514.052 315.646 515.324 316.043 516.894 316.043Z" fill="#F2F2F2"/>
<path opacity="0.1" d="M481.689 320.038V322.258H364.044V320.482L364.206 320.038H481.689Z" fill="black"/>
<path d="M214.412 68.9999C213.218 68.9004 212.023 69.1714 210.984 69.7771C209.964 70.486 209.321 71.7279 208.665 72.8836C206.156 77.3549 202.76 81.2487 198.691 84.3183C195.727 86.5219 191.959 89.2694 192.466 93.3321C192.734 94.6738 193.222 95.9602 193.911 97.1371C196.645 102.739 204.106 107.067 203.372 113.459C206.088 108.844 202.455 106.562 205.171 101.946C206.465 99.7483 208.712 97.2673 210.665 98.6476C211.319 99.1097 211.748 99.9387 212.429 100.344C214.054 101.312 215.782 99.4619 217.221 98.1516C222.18 93.6333 229.233 94.817 235.404 96.2248C238.317 96.8894 241.517 97.7614 243.24 100.587C245.504 104.303 241.088 108.316 239.973 112.517C239.881 112.875 239.877 113.25 239.96 113.61C240.043 113.97 240.21 114.305 240.448 114.585C240.686 114.865 240.987 115.082 241.326 115.218C241.665 115.354 242.031 115.405 242.393 115.366C244.245 115.181 246.438 115.029 246.548 114.204C248.878 114.288 251.732 114.02 252.731 111.558C253.036 110.584 253.197 109.57 253.209 108.547C253.576 104.412 255.305 100.639 256.451 96.7022C257.597 92.7659 258.095 88.1528 256.161 84.6629C255.471 83.5017 254.618 82.449 253.628 81.5381C242.655 70.7611 228.229 68.9839 214.412 68.9999Z" fill="#2F2E41"/>
<path d="M205.758 121.532C205.758 121.532 208.144 141.715 199.394 143.33C190.645 144.944 207.349 172.393 207.349 172.393L247.121 177.237L237.576 144.944C237.576 144.944 231.212 142.522 235.19 126.376C239.167 110.23 205.758 121.532 205.758 121.532Z" fill="#FFB8B8"/>
<path d="M181.497 468.273L184.679 512.675H201.383L196.611 468.273H181.497Z" fill="#FFB8B8"/>
<path d="M303.996 384.312L306.382 421.449L324.678 413.376L317.518 382.698L303.996 384.312Z" fill="#FFB8B8"/>
<path d="M169.565 298.737C169.565 298.737 170.361 345.561 175.133 360.9C179.906 376.239 179.111 377.047 178.315 379.469C177.52 381.891 176.724 380.276 176.724 384.312C176.724 388.349 175.133 452.127 176.724 457.778C178.315 463.429 171.952 473.117 176.724 473.924C181.497 474.731 203.769 473.924 204.565 469.08C205.36 464.236 198.201 462.622 201.383 459.393C204.565 456.163 209.338 389.964 209.338 389.964L220.474 343.947L241.156 319.727H284.905L298.428 373.01C298.428 373.01 292.86 388.349 296.837 388.349C300.814 388.349 324.678 393.193 324.678 375.432C324.678 357.671 316.723 305.196 315.132 303.581C313.541 301.967 315.928 296.315 313.541 293.894C311.155 291.472 283.314 274.518 272.973 271.289C262.633 268.06 248.126 264.216 248.126 264.216L169.565 298.737Z" fill="#2F2E41"/>
<path d="M324.678 406.917C324.678 406.917 312.746 402.881 307.178 414.99C301.61 427.1 303.996 430.329 303.996 430.329C303.996 430.329 322.291 436.788 325.473 433.559C326.857 432.154 331.253 431.666 335.778 431.562C342.669 431.406 344.503 421.51 337.994 419.206C337.8 419.137 337.604 419.078 337.405 419.027C331.041 417.412 324.678 406.917 324.678 406.917Z" fill="#2F2E41"/>
<path d="M223.656 134.853C236.835 134.853 247.519 124.01 247.519 110.634C247.519 97.2577 236.835 86.4143 223.656 86.4143C210.476 86.4143 199.792 97.2577 199.792 110.634C199.792 124.01 210.476 134.853 223.656 134.853Z" fill="#FFB8B8"/>
<path d="M192.633 153.421C192.633 153.421 231.61 161.494 241.156 148.577C250.701 135.66 254.678 184.906 254.678 184.906L259.451 236.574L252.292 264.83C252.292 264.83 214.906 295.508 202.974 297.93C191.042 300.352 172.747 301.967 172.747 301.967C172.747 301.967 178.315 212.355 178.315 210.74C178.315 209.126 192.633 153.421 192.633 153.421Z" fill="white"/>
<path d="M204.487 138.28C204.487 138.28 195.815 133.238 193.429 138.082C191.042 142.926 168.77 155.036 166.383 155.036C163.997 155.036 171.156 222.043 167.974 230.116C164.792 238.189 149.679 297.123 158.429 301.967C167.179 306.811 160.815 297.123 169.565 309.232C178.315 321.342 221.269 321.342 223.656 316.498C226.042 311.654 204.565 275.325 208.542 241.418C212.519 207.511 218.883 160.687 213.315 154.229C207.747 147.77 204.487 138.28 204.487 138.28Z" fill="#2F2E41"/>
<path d="M233.201 143.733L234.309 139.864C234.309 139.864 267.405 150.999 268.996 158.265C270.587 165.531 269.792 216.392 264.224 220.428C258.655 224.465 250.701 230.923 256.269 240.611C261.837 250.299 268.201 260.794 272.973 261.601C277.746 262.408 286.496 268.059 284.11 273.711C281.723 279.362 253.087 268.867 253.087 268.867C253.087 268.867 233.997 254.335 234.792 231.73C235.587 209.126 233.201 143.733 233.201 143.733Z" fill="#2F2E41"/>
<path d="M261.042 238.996L241.951 275.325C241.951 275.325 214.11 304.389 230.019 307.618C245.928 310.847 254.678 280.976 254.678 280.976L275.36 251.106L261.042 238.996Z" fill="#FFB8B8"/>
<path d="M214.413 63.7396C213.451 63.6673 212.488 63.857 211.623 64.289C210.84 64.869 210.195 65.6192 209.735 66.4846C207.613 69.7237 204.848 72.4766 201.615 74.5666C199.203 76.1241 196.136 78.066 196.548 80.9375C196.772 81.9003 197.171 82.8123 197.724 83.6269C199.958 87.6259 200.847 92.2545 200.257 96.8121L206.891 87.0259C207.944 85.4725 209.773 83.7189 211.363 84.6945C211.895 85.0211 212.245 85.607 212.799 85.8936C214.122 86.5775 215.529 85.2701 216.7 84.3439C220.737 81.1504 226.478 81.987 231.502 82.9821C233.873 83.4518 236.478 84.0681 237.88 86.0656C240.21 89.385 237.777 94.1813 239.137 98.016C239.518 97.7456 239.841 97.4003 240.088 97.0007C240.334 96.6011 240.5 96.1552 240.573 95.6897C242.47 95.7492 244.794 95.5599 245.606 93.8197C245.853 93.1377 245.985 92.4182 245.996 91.6916C246.294 88.7684 247.702 86.1016 248.635 83.3195C249.567 80.5373 249.973 77.2768 248.399 74.8101C247.823 73.9743 247.128 73.23 246.337 72.6016C237.405 64.9845 225.661 63.7283 214.413 63.7396Z" fill="#2F2E41"/>
<path d="M261.042 155.036L268.453 157.032C268.453 157.032 285.701 201.86 281.723 232.538C277.746 263.216 275.36 256.757 275.36 256.757C275.36 256.757 268.996 242.225 254.678 245.455L261.042 155.036Z" fill="#2F2E41"/>
<path d="M182.599 506.807C180.681 509.452 181.065 513.234 179.366 516.03C177.893 518.453 175.118 519.724 173.275 521.871C172.688 522.584 172.163 523.349 171.709 524.157C170 527.062 168.611 530.786 170.295 533.706C171.648 536.056 174.494 536.974 177.104 537.6C180.403 538.391 183.831 539.024 187.168 538.42C190.505 537.815 193.766 535.741 194.956 532.52C195.19 531.71 195.468 530.914 195.789 530.135C197.598 526.521 203.271 526.482 205.122 522.89C206.417 520.377 205.226 517.339 204.036 514.772L200.401 506.934C199.194 504.332 194.303 505.828 191.754 505.205C188.428 504.392 184.991 503.496 182.599 506.807Z" fill="#2F2E41"/>
<path d="M156.043 255.142L189.451 307.618C189.451 307.618 210.133 334.259 216.497 322.149C222.86 310.04 194.224 289.857 194.224 289.857L172.747 249.491L156.043 255.142Z" fill="#FFB8B8"/>
<path d="M172.747 156.65L166.383 155.036C166.383 155.036 153.656 159.072 150.474 176.026C147.293 192.979 149.679 260.794 153.656 261.601C157.633 262.408 173.3 249.793 175.807 252.468C178.315 255.142 170.361 241.418 172.747 234.152C175.133 226.887 172.747 156.65 172.747 156.65Z" fill="#2F2E41"/>
<path d="M471.812 192.686H451.253V197.71H471.812V192.686Z" fill="#6C63FF"/>
<path d="M543.008 192.686H535.774V197.71H543.008V192.686Z" fill="#6C63FF"/>
<path d="M557.476 192.686H550.242V197.71H557.476V192.686Z" fill="#6C63FF"/>
<path d="M528.16 192.686H479.046V197.71H528.16V192.686Z" fill="#6C63FF"/>
<path d="M445.923 225.144H425.364V230.168H445.923V225.144Z" fill="#6C63FF"/>
<path d="M517.119 225.144H509.885V230.168H517.119V225.144Z" fill="#6C63FF"/>
<path d="M531.586 225.144H524.352V230.168H531.586V225.144Z" fill="#6C63FF"/>
<path d="M502.27 225.144H453.157V230.168H502.27V225.144Z" fill="#6C63FF"/>
<path d="M530.825 203.892H510.266V208.915H530.825V203.892Z" fill="#6C63FF"/>
<path d="M558.618 203.892H538.059V208.915H558.618V203.892Z" fill="#6C63FF"/>
<path d="M432.598 203.892H425.364V208.915H432.598V203.892Z" fill="#6C63FF"/>
<path d="M447.065 203.892H439.831V208.915H447.065V203.892Z" fill="#6C63FF"/>
<path d="M503.413 203.892H454.299V208.915H503.413V203.892Z" fill="#6C63FF"/>
<path d="M488.184 214.711H467.624V219.735H488.184V214.711Z" fill="#6C63FF"/>
<path d="M460.391 214.711H439.831V219.735H460.391V214.711Z" fill="#6C63FF"/>
<path d="M432.597 214.711H425.364V219.735H432.597V214.711Z" fill="#6C63FF"/>
<path d="M558.618 214.711H551.384V219.735H558.618V214.711Z" fill="#6C63FF"/>
<path d="M544.15 214.711H495.037V219.735H544.15V214.711Z" fill="#6C63FF"/>
</g>
<defs>
<clipPath id="clip0">
<rect width="492" height="479" fill="white" transform="translate(149 69)"/>
</clipPath>
</defs>
</svg>
